STARTFONT 2.1
FONT -FontForge-Haversham-Book-R-Normal--32-310-75-75-P-159-ISO10646-1
SIZE 31 75 75
FONTBOUNDINGBOX 28 38 -2 -8
COMMENT "Generated by fontforge, http://fontforge.sourceforge.net"
COMMENT "Copyright (c) Sean Noonan, 2015"
STARTPROPERTIES 40
FOUNDRY "FontForge"
FAMILY_NAME "Haversham"
WEIGHT_NAME "Book"
SLANT "R"
SETWIDTH_NAME "Normal"
ADD_STYLE_NAME ""
PIXEL_SIZE 32
POINT_SIZE 310
RESOLUTION_X 75
RESOLUTION_Y 75
SPACING "P"
AVERAGE_WIDTH 159
CHARSET_REGISTRY "ISO10646"
CHARSET_ENCODING "1"
FONTNAME_REGISTRY ""
CHARSET_COLLECTIONS "ISO8859-5 ISO10646-1"
FONT_NAME "Haversham"
FACE_NAME "Haversham"
COPYRIGHT "Copyright (c) Sean Noonan, 2015"
FONT_VERSION ""
FONT_ASCENT 24
FONT_DESCENT 8
UNDERLINE_POSITION 0
UNDERLINE_THICKNESS 1
X_HEIGHT 13
CAP_HEIGHT 23
DEFAULT_CHAR 1
RAW_ASCENT 750
RAW_DESCENT 250
NORM_SPACE 10
RELATIVE_WEIGHT 40
RELATIVE_SETWIDTH 50
SUPERSCRIPT_X 1
SUPERSCRIPT_Y 1
SUPERSCRIPT_SIZE 1
SUBSCRIPT_X 1
SUBSCRIPT_Y 1
SUBSCRIPT_SIZE 1
AVG_LOWERCASE_WIDTH 165
AVG_UPPERCASE_WIDTH 169
ENDPROPERTIES
CHARS 175
STARTCHAR uni0000
ENCODING 0
SWIDTH 0 0
DWIDTH 0 0
BBX 1 1 0 0
BITMAP
00
ENDCHAR
STARTCHAR uni000D
ENCODING 13
SWIDTH 0 0
DWIDTH 0 0
BBX 1 1 0 0
BITMAP
00
ENDCHAR
STARTCHAR space
ENCODING 32
SWIDTH 312 0
DWIDTH 10 0
BBX 1 1 0 0
BITMAP
00
ENDCHAR
STARTCHAR exclam
ENCODING 33
SWIDTH 312 0
DWIDTH 10 0
BBX 4 24 4 0
BITMAP
30
30
F0
F0
30
30
30
30
30
30
30
30
30
30
30
30
30
30
00
00
30
30
30
30
ENDCHAR
STARTCHAR quotedbl
ENCODING 34
SWIDTH 375 0
DWIDTH 12 0
BBX 8 4 2 20
BITMAP
FF
FF
33
33
ENDCHAR
STARTCHAR numbersign
ENCODING 35
SWIDTH 562 0
DWIDTH 18 0
BBX 14 16 2 0
BITMAP
0C30
0C30
0C30
0C30
FFFC
FFFC
0C30
0C30
0C30
0C30
FFFC
FFFC
0C30
0C30
0C30
0C30
ENDCHAR
STARTCHAR dollar
ENCODING 36
SWIDTH 500 0
DWIDTH 16 0
BBX 10 18 4 0
BITMAP
0C00
0C00
3F00
3F00
CCC0
CCC0
CC00
CC00
3F00
3F00
0CC0
0CC0
CCC0
CCC0
3F00
3F00
0C00
0C00
ENDCHAR
STARTCHAR percent
ENCODING 37
SWIDTH 562 0
DWIDTH 18 0
BBX 14 16 2 0
BITMAP
3030
3030
CCC0
CCC0
30C0
30C0
0300
0300
0300
0300
0C30
0C30
0CCC
0CCC
3030
3030
ENDCHAR
STARTCHAR ampersand
ENCODING 38
SWIDTH 562 0
DWIDTH 18 0
BBX 12 12 4 0
BITMAP
3C00
3C00
C300
C300
3C00
3C00
C330
C330
C0C0
C0C0
3F30
3F30
ENDCHAR
STARTCHAR quotesingle
ENCODING 39
SWIDTH 250 0
DWIDTH 8 0
BBX 4 4 2 20
BITMAP
F0
F0
30
30
ENDCHAR
STARTCHAR parenleft
ENCODING 40
SWIDTH 312 0
DWIDTH 10 0
BBX 8 28 0 -4
BITMAP
03
03
0C
0C
0C
0C
30
30
F0
F0
30
30
30
30
30
30
30
30
30
30
30
30
0C
0C
0C
0C
03
03
ENDCHAR
STARTCHAR parenright
ENCODING 41
SWIDTH 312 0
DWIDTH 10 0
BBX 6 28 2 -4
BITMAP
C0
C0
30
30
30
30
0C
0C
0C
0C
0C
0C
0C
0C
0C
0C
0C
0C
0C
0C
0C
0C
30
30
30
30
C0
C0
ENDCHAR
STARTCHAR asterisk
ENCODING 42
SWIDTH 500 0
DWIDTH 16 0
BBX 10 10 4 12
BITMAP
0C00
0C00
FFC0
FFC0
3F00
3F00
CCC0
CCC0
0C00
0C00
ENDCHAR
STARTCHAR plus
ENCODING 43
SWIDTH 500 0
DWIDTH 16 0
BBX 10 10 4 0
BITMAP
0C00
0C00
0C00
0C00
FFC0
FFC0
0C00
0C00
0C00
0C00
ENDCHAR
STARTCHAR comma
ENCODING 44
SWIDTH 250 0
DWIDTH 8 0
BBX 4 4 2 -2
BITMAP
F0
F0
30
30
ENDCHAR
STARTCHAR hyphen
ENCODING 45
SWIDTH 437 0
DWIDTH 14 0
BBX 6 2 6 4
BITMAP
FC
FC
ENDCHAR
STARTCHAR period
ENCODING 46
SWIDTH 250 0
DWIDTH 8 0
BBX 2 2 4 0
BITMAP
C0
C0
ENDCHAR
STARTCHAR slash
ENCODING 47
SWIDTH 562 0
DWIDTH 18 0
BBX 12 24 4 0
BITMAP
0030
0030
0030
0030
03C0
03C0
00C0
00C0
0300
0300
0300
0300
0C00
0C00
0C00
0C00
3000
3000
3000
3000
C000
C000
C000
C000
ENDCHAR
STARTCHAR zero
ENCODING 48
SWIDTH 500 0
DWIDTH 16 0
BBX 10 16 4 0
BITMAP
3F00
3F00
C0C0
C0C0
C0C0
C0C0
C0C0
C0C0
C0C0
C0C0
C0C0
C0C0
C0C0
C0C0
3F00
3F00
ENDCHAR
STARTCHAR one
ENCODING 49
SWIDTH 437 0
DWIDTH 14 0
BBX 6 16 6 0
BITMAP
30
30
F0
F0
30
30
30
30
30
30
30
30
30
30
FC
FC
ENDCHAR
STARTCHAR two
ENCODING 50
SWIDTH 500 0
DWIDTH 16 0
BBX 10 16 4 0
BITMAP
0F00
0F00
F0C0
F0C0
00C0
00C0
00C0
00C0
0F00
0F00
3000
3000
C000
C000
FFC0
FFC0
ENDCHAR
STARTCHAR three
ENCODING 51
SWIDTH 500 0
DWIDTH 16 0
BBX 10 16 4 0
BITMAP
0F00
0F00
F0C0
F0C0
00C0
00C0
00C0
00C0
0F00
0F00
00C0
00C0
C0C0
C0C0
3F00
3F00
ENDCHAR
STARTCHAR four
ENCODING 52
SWIDTH 500 0
DWIDTH 16 0
BBX 12 16 2 0
BITMAP
3000
3000
F000
F000
3300
3300
3300
3300
3FF0
3FF0
0300
0300
0300
0300
0F00
0F00
ENDCHAR
STARTCHAR five
ENCODING 53
SWIDTH 500 0
DWIDTH 16 0
BBX 10 16 4 0
BITMAP
FFC0
FFC0
C000
C000
C000
C000
3F00
3F00
00C0
00C0
00C0
00C0
C0C0
C0C0
3F00
3F00
ENDCHAR
STARTCHAR six
ENCODING 54
SWIDTH 500 0
DWIDTH 16 0
BBX 10 16 4 0
BITMAP
0F00
0F00
3000
3000
C000
C000
CF00
CF00
F0C0
F0C0
C0C0
C0C0
C0C0
C0C0
3F00
3F00
ENDCHAR
STARTCHAR seven
ENCODING 55
SWIDTH 500 0
DWIDTH 16 0
BBX 10 16 4 0
BITMAP
FFC0
FFC0
0300
0300
0300
0300
0C00
0C00
FF00
FF00
3000
3000
3000
3000
C000
C000
ENDCHAR
STARTCHAR eight
ENCODING 56
SWIDTH 500 0
DWIDTH 16 0
BBX 12 16 2 0
BITMAP
0FC0
0FC0
F030
F030
3030
3030
0FC0
0FC0
3030
3030
3030
3030
3030
3030
0FC0
0FC0
ENDCHAR
STARTCHAR nine
ENCODING 57
SWIDTH 500 0
DWIDTH 16 0
BBX 10 16 4 0
BITMAP
3F00
3F00
C0C0
C0C0
C0C0
C0C0
C3C0
C3C0
3CC0
3CC0
00C0
00C0
0300
0300
3C00
3C00
ENDCHAR
STARTCHAR colon
ENCODING 58
SWIDTH 250 0
DWIDTH 8 0
BBX 2 14 4 0
BITMAP
C0
C0
00
00
00
00
00
00
00
00
00
00
C0
C0
ENDCHAR
STARTCHAR semicolon
ENCODING 59
SWIDTH 250 0
DWIDTH 8 0
BBX 4 16 2 -2
BITMAP
30
30
00
00
00
00
00
00
00
00
00
00
30
30
F0
F0
ENDCHAR
STARTCHAR less
ENCODING 60
SWIDTH 312 0
DWIDTH 10 0
BBX 6 10 2 0
BITMAP
0C
0C
30
30
C0
C0
30
30
0C
0C
ENDCHAR
STARTCHAR equal
ENCODING 61
SWIDTH 375 0
DWIDTH 12 0
BBX 8 6 2 2
BITMAP
FF
FF
00
00
FF
FF
ENDCHAR
STARTCHAR greater
ENCODING 62
SWIDTH 312 0
DWIDTH 10 0
BBX 6 10 2 0
BITMAP
C0
C0
30
30
0C
0C
30
30
C0
C0
ENDCHAR
STARTCHAR question
ENCODING 63
SWIDTH 562 0
DWIDTH 18 0
BBX 14 24 2 0
BITMAP
3FF0
3FF0
C00C
C00C
C00C
C00C
3C0C
3C0C
0030
0030
00C0
00C0
0300
0300
0300
0300
0300
0300
0000
0000
0300
0300
0300
0300
ENDCHAR
STARTCHAR at
ENCODING 64
SWIDTH 812 0
DWIDTH 26 0
BBX 22 20 2 0
BITMAP
03FF00
03FF00
0C00C0
0C00C0
300030
300030
C0FC0C
C0FC0C
C3030C
C3030C
C30F0C
C30F0C
C0F30C
C0F30C
3000F0
3000F0
0C0000
0C0000
03FFC0
03FFC0
ENDCHAR
STARTCHAR A
ENCODING 65
SWIDTH 500 0
DWIDTH 16 0
BBX 12 24 2 0
BITMAP
3FF0
3FF0
F030
F030
3030
3030
3030
3030
3030
3030
3FF0
3FF0
3030
3030
3030
3030
3030
3030
3030
3030
3030
3030
F0F0
F0F0
ENDCHAR
STARTCHAR B
ENCODING 66
SWIDTH 500 0
DWIDTH 16 0
BBX 12 24 2 0
BITMAP
3FC0
3FC0
F030
F030
3030
3030
3030
3030
3030
3030
3FC0
3FC0
3030
3030
3030
3030
3030
3030
3030
3030
3030
3030
FFC0
FFC0
ENDCHAR
STARTCHAR C
ENCODING 67
SWIDTH 500 0
DWIDTH 16 0
BBX 12 24 2 0
BITMAP
0FC0
0FC0
F030
F030
3000
3000
3000
3000
3000
3000
3000
3000
3000
3000
3000
3000
3000
3000
3000
3000
3030
3030
0FC0
0FC0
ENDCHAR
STARTCHAR D
ENCODING 68
SWIDTH 500 0
DWIDTH 16 0
BBX 12 24 2 0
BITMAP
3FC0
3FC0
F030
F030
3030
3030
3030
3030
3030
3030
3030
3030
3030
3030
3030
3030
3030
3030
3030
3030
3030
3030
FFC0
FFC0
ENDCHAR
STARTCHAR E
ENCODING 69
SWIDTH 437 0
DWIDTH 14 0
BBX 10 24 2 0
BITMAP
3FC0
3FC0
F000
F000
3000
3000
3000
3000
3000
3000
3F00
3F00
3000
3000
3000
3000
3000
3000
3000
3000
3000
3000
FFC0
FFC0
ENDCHAR
STARTCHAR F
ENCODING 70
SWIDTH 500 0
DWIDTH 16 0
BBX 12 24 2 0
BITMAP
3FF0
3FF0
F000
F000
3000
3000
3000
3000
3000
3000
3FC0
3FC0
3000
3000
3000
3000
3000
3000
3000
3000
3000
3000
F000
F000
ENDCHAR
STARTCHAR G
ENCODING 71
SWIDTH 500 0
DWIDTH 16 0
BBX 12 24 2 0
BITMAP
3FC0
3FC0
F030
F030
3000
3000
3000
3000
3000
3000
30F0
30F0
3030
3030
3030
3030
3030
3030
3030
3030
3030
3030
FFC0
FFC0
ENDCHAR
STARTCHAR H
ENCODING 72
SWIDTH 500 0
DWIDTH 16 0
BBX 12 24 2 0
BITMAP
3030
3030
F0F0
F0F0
3030
3030
3030
3030
3030
3030
3FF0
3FF0
3030
3030
3030
3030
3030
3030
3030
3030
3030
3030
F0F0
F0F0
ENDCHAR
STARTCHAR I
ENCODING 73
SWIDTH 312 0
DWIDTH 10 0
BBX 6 24 2 0
BITMAP
FC
FC
30
30
30
30
30
30
30
30
30
30
30
30
30
30
30
30
30
30
30
30
FC
FC
ENDCHAR
STARTCHAR J
ENCODING 74
SWIDTH 375 0
DWIDTH 12 0
BBX 8 24 2 0
BITMAP
03
03
0F
0F
03
03
03
03
03
03
03
03
03
03
03
03
03
03
03
03
C3
C3
3C
3C
ENDCHAR
STARTCHAR K
ENCODING 75
SWIDTH 500 0
DWIDTH 16 0
BBX 12 24 2 0
BITMAP
3030
3030
F0C0
F0C0
30C0
30C0
3300
3300
3300
3300
3C00
3C00
3300
3300
3300
3300
30C0
30C0
30C0
30C0
30C0
30C0
F030
F030
ENDCHAR
STARTCHAR L
ENCODING 76
SWIDTH 500 0
DWIDTH 16 0
BBX 12 24 2 0
BITMAP
3000
3000
F000
F000
3000
3000
3000
3000
3000
3000
3000
3000
3000
3000
3000
3000
3000
3000
3000
3000
3000
3000
FFF0
FFF0
ENDCHAR
STARTCHAR M
ENCODING 77
SWIDTH 625 0
DWIDTH 20 0
BBX 16 24 2 0
BITMAP
3C0F
3C0F
F333
F333
3333
3333
30C3
30C3
30C3
30C3
30C3
30C3
3003
3003
3003
3003
3003
3003
3003
3003
3003
3003
F00F
F00F
ENDCHAR
STARTCHAR N
ENCODING 78
SWIDTH 562 0
DWIDTH 18 0
BBX 14 24 2 0
BITMAP
300C
300C
FC3C
FC3C
3C0C
3C0C
330C
330C
330C
330C
330C
330C
30CC
30CC
30CC
30CC
30CC
30CC
303C
303C
303C
303C
F00C
F00C
ENDCHAR
STARTCHAR O
ENCODING 79
SWIDTH 500 0
DWIDTH 16 0
BBX 12 24 2 0
BITMAP
0FC0
0FC0
3030
3030
F030
F030
3030
3030
3030
3030
3030
3030
3030
3030
3030
3030
3030
3030
3030
3030
3030
3030
0FC0
0FC0
ENDCHAR
STARTCHAR P
ENCODING 80
SWIDTH 500 0
DWIDTH 16 0
BBX 12 24 2 0
BITMAP
3FC0
3FC0
F030
F030
3030
3030
3030
3030
3030
3030
3FC0
3FC0
3000
3000
3000
3000
3000
3000
3000
3000
3000
3000
F000
F000
ENDCHAR
STARTCHAR Q
ENCODING 81
SWIDTH 562 0
DWIDTH 18 0
BBX 14 24 2 0
BITMAP
0FC0
0FC0
3030
3030
F030
F030
3030
3030
3030
3030
3030
3030
3030
3030
3030
3030
3330
3330
30F0
30F0
3030
3030
0FCC
0FCC
ENDCHAR
STARTCHAR R
ENCODING 82
SWIDTH 500 0
DWIDTH 16 0
BBX 12 24 2 0
BITMAP
3FC0
3FC0
F030
F030
3030
3030
3030
3030
3030
3030
3FC0
3FC0
30C0
30C0
3030
3030
3030
3030
3030
3030
3030
3030
F0F0
F0F0
ENDCHAR
STARTCHAR S
ENCODING 83
SWIDTH 437 0
DWIDTH 14 0
BBX 10 24 2 0
BITMAP
3F00
3F00
C0C0
C0C0
C300
C300
C000
C000
C000
C000
3F00
3F00
00C0
00C0
00C0
00C0
00C0
00C0
30C0
30C0
C0C0
C0C0
3F00
3F00
ENDCHAR
STARTCHAR T
ENCODING 84
SWIDTH 625 0
DWIDTH 20 0
BBX 18 24 2 0
BITMAP
3FFFC0
3FFFC0
C0C300
C0C300
00C000
00C000
00C000
00C000
00C000
00C000
00C000
00C000
00C000
00C000
00C000
00C000
00C000
00C000
00C000
00C000
00C000
00C000
03C000
03C000
ENDCHAR
STARTCHAR U
ENCODING 85
SWIDTH 500 0
DWIDTH 16 0
BBX 12 24 2 0
BITMAP
3030
3030
F0F0
F0F0
3030
3030
3030
3030
3030
3030
3030
3030
3030
3030
3030
3030
3030
3030
3030
3030
3030
3030
FFC0
FFC0
ENDCHAR
STARTCHAR V
ENCODING 86
SWIDTH 500 0
DWIDTH 16 0
BBX 12 24 2 0
BITMAP
3030
3030
F0F0
F0F0
3030
3030
3030
3030
3030
3030
3030
3030
3030
3030
3030
3030
3030
3030
0CC0
0CC0
0CC0
0CC0
0300
0300
ENDCHAR
STARTCHAR W
ENCODING 87
SWIDTH 625 0
DWIDTH 20 0
BBX 16 24 2 0
BITMAP
3003
3003
F00F
F00F
30C3
30C3
33C3
33C3
30C3
30C3
30C3
30C3
30C3
30C3
30C3
30C3
30C3
30C3
3333
3333
3333
3333
FC0F
FC0F
ENDCHAR
STARTCHAR X
ENCODING 88
SWIDTH 500 0
DWIDTH 16 0
BBX 12 24 2 0
BITMAP
3030
3030
F0F0
F0F0
3030
3030
0CC0
0CC0
0CC0
0CC0
0300
0300
0300
0300
0CC0
0CC0
0CC0
0CC0
3030
3030
3030
3030
F0F0
F0F0
ENDCHAR
STARTCHAR Y
ENCODING 89
SWIDTH 500 0
DWIDTH 16 0
BBX 12 24 2 0
BITMAP
3030
3030
F0F0
F0F0
3030
3030
3030
3030
3030
3030
0FF0
0FF0
0030
0030
0030
0030
0030
0030
0030
0030
3030
3030
0FC0
0FC0
ENDCHAR
STARTCHAR Z
ENCODING 90
SWIDTH 437 0
DWIDTH 14 0
BBX 10 24 2 0
BITMAP
3FC0
3FC0
C0C0
C0C0
00C0
00C0
0300
0300
0300
0300
0300
0300
0C00
0C00
0C00
0C00
0C00
0C00
3000
3000
3000
3000
FFC0
FFC0
ENDCHAR
STARTCHAR bracketleft
ENCODING 91
SWIDTH 375 0
DWIDTH 12 0
BBX 8 28 2 -4
BITMAP
3F
3F
F3
F3
30
30
30
30
30
30
30
30
30
30
30
30
30
30
30
30
30
30
30
30
33
33
3F
3F
ENDCHAR
STARTCHAR backslash
ENCODING 92
SWIDTH 562 0
DWIDTH 18 0
BBX 12 24 4 0
BITMAP
C000
C000
C000
C000
3000
3000
3000
3000
0C00
0C00
0C00
0C00
0300
0300
0300
0300
00C0
00C0
00C0
00C0
0030
0030
0030
0030
ENDCHAR
STARTCHAR bracketright
ENCODING 93
SWIDTH 312 0
DWIDTH 10 0
BBX 6 28 2 -4
BITMAP
FC
FC
CC
CC
0C
0C
0C
0C
0C
0C
0C
0C
0C
0C
0C
0C
0C
0C
0C
0C
0C
0C
0C
0C
CC
CC
FC
FC
ENDCHAR
STARTCHAR asciicircum
ENCODING 94
SWIDTH 437 0
DWIDTH 14 0
BBX 10 6 2 16
BITMAP
0C00
0C00
3300
3300
C0C0
C0C0
ENDCHAR
STARTCHAR underscore
ENCODING 95
SWIDTH 500 0
DWIDTH 16 0
BBX 10 2 4 0
BITMAP
FFC0
FFC0
ENDCHAR
STARTCHAR grave
ENCODING 96
SWIDTH 312 0
DWIDTH 10 0
BBX 4 6 4 16
BITMAP
C0
C0
C0
C0
30
30
ENDCHAR
STARTCHAR a
ENCODING 97
SWIDTH 500 0
DWIDTH 16 0
BBX 10 14 4 0
BITMAP
3F00
3F00
C0C0
C0C0
00C0
00C0
3FC0
3FC0
C0C0
C0C0
C3C0
C3C0
3CC0
3CC0
ENDCHAR
STARTCHAR b
ENCODING 98
SWIDTH 500 0
DWIDTH 16 0
BBX 12 24 2 0
BITMAP
3000
3000
F000
F000
3000
3000
3000
3000
3000
3000
3FC0
3FC0
3030
3030
3030
3030
3030
3030
3030
3030
3030
3030
FFC0
FFC0
ENDCHAR
STARTCHAR c
ENCODING 99
SWIDTH 500 0
DWIDTH 16 0
BBX 12 14 2 0
BITMAP
0FC0
0FC0
3030
3030
F000
F000
3000
3000
3000
3000
3030
3030
0FC0
0FC0
ENDCHAR
STARTCHAR d
ENCODING 100
SWIDTH 500 0
DWIDTH 16 0
BBX 10 24 4 0
BITMAP
00C0
00C0
03C0
03C0
00C0
00C0
00C0
00C0
00C0
00C0
3FC0
3FC0
C0C0
C0C0
C0C0
C0C0
C0C0
C0C0
C0C0
C0C0
C0C0
C0C0
3FC0
3FC0
ENDCHAR
STARTCHAR e
ENCODING 101
SWIDTH 500 0
DWIDTH 16 0
BBX 12 14 2 0
BITMAP
0FC0
0FC0
3030
3030
F0C0
F0C0
3300
3300
3C00
3C00
3030
3030
0FC0
0FC0
ENDCHAR
STARTCHAR f
ENCODING 102
SWIDTH 437 0
DWIDTH 14 0
BBX 10 24 2 0
BITMAP
3F00
3F00
F0C0
F0C0
3000
3000
3000
3000
3000
3000
3F00
3F00
3000
3000
3000
3000
3000
3000
3000
3000
3000
3000
F000
F000
ENDCHAR
STARTCHAR g
ENCODING 103
SWIDTH 500 0
DWIDTH 16 0
BBX 12 22 2 -8
BITMAP
0FC0
0FC0
3030
3030
F030
F030
3030
3030
3030
3030
30F0
30F0
0F30
0F30
0030
0030
0030
0030
3030
3030
0FC0
0FC0
ENDCHAR
STARTCHAR h
ENCODING 104
SWIDTH 500 0
DWIDTH 16 0
BBX 12 24 2 0
BITMAP
3000
3000
F000
F000
3000
3000
3000
3000
3000
3000
3FC0
3FC0
3030
3030
3030
3030
3030
3030
3030
3030
3030
3030
F0F0
F0F0
ENDCHAR
STARTCHAR i
ENCODING 105
SWIDTH 312 0
DWIDTH 10 0
BBX 4 18 4 0
BITMAP
30
30
30
30
00
00
30
30
F0
F0
30
30
30
30
30
30
30
30
ENDCHAR
STARTCHAR j
ENCODING 106
SWIDTH 437 0
DWIDTH 14 0
BBX 8 26 4 -8
BITMAP
03
03
03
03
00
00
03
03
0F
0F
03
03
03
03
03
03
03
03
03
03
03
03
C3
C3
3C
3C
ENDCHAR
STARTCHAR k
ENCODING 107
SWIDTH 437 0
DWIDTH 14 0
BBX 10 24 2 0
BITMAP
3000
3000
F000
F000
3000
3000
3000
3000
30C0
30C0
3300
3300
3C00
3C00
3300
3300
3300
3300
30C0
30C0
30C0
30C0
F0C0
F0C0
ENDCHAR
STARTCHAR l
ENCODING 108
SWIDTH 437 0
DWIDTH 14 0
BBX 6 24 6 0
BITMAP
30
30
F0
F0
30
30
30
30
30
30
30
30
30
30
30
30
30
30
30
30
30
30
3C
3C
ENDCHAR
STARTCHAR m
ENCODING 109
SWIDTH 750 0
DWIDTH 24 0
BBX 20 14 2 0
BITMAP
0FCFC0
0FCFC0
303030
303030
F03030
F03030
303030
303030
303030
303030
303030
303030
303030
303030
ENDCHAR
STARTCHAR n
ENCODING 110
SWIDTH 500 0
DWIDTH 16 0
BBX 12 14 2 0
BITMAP
0FC0
0FC0
3030
3030
F030
F030
3030
3030
3030
3030
3030
3030
3030
3030
ENDCHAR
STARTCHAR o
ENCODING 111
SWIDTH 500 0
DWIDTH 16 0
BBX 12 14 2 0
BITMAP
0FC0
0FC0
3030
3030
F030
F030
3030
3030
3030
3030
3030
3030
0FC0
0FC0
ENDCHAR
STARTCHAR p
ENCODING 112
SWIDTH 500 0
DWIDTH 16 0
BBX 12 22 2 -8
BITMAP
0FC0
0FC0
3030
3030
F030
F030
3030
3030
3030
3030
3030
3030
3FC0
3FC0
3000
3000
3000
3000
3000
3000
3000
3000
ENDCHAR
STARTCHAR q
ENCODING 113
SWIDTH 562 0
DWIDTH 18 0
BBX 14 22 2 -8
BITMAP
0FC0
0FC0
3030
3030
F030
F030
3030
3030
3030
3030
3030
3030
0FF0
0FF0
0030
0030
0030
0030
003C
003C
0030
0030
ENDCHAR
STARTCHAR r
ENCODING 114
SWIDTH 500 0
DWIDTH 16 0
BBX 12 14 2 0
BITMAP
0FC0
0FC0
3030
3030
F000
F000
3000
3000
3000
3000
3000
3000
3000
3000
ENDCHAR
STARTCHAR s
ENCODING 115
SWIDTH 500 0
DWIDTH 16 0
BBX 12 14 2 0
BITMAP
0FC0
0FC0
3030
3030
F000
F000
0FC0
0FC0
0030
0030
3030
3030
0FC0
0FC0
ENDCHAR
STARTCHAR t
ENCODING 116
SWIDTH 437 0
DWIDTH 14 0
BBX 10 24 2 0
BITMAP
3000
3000
F000
F000
3000
3000
3000
3000
3000
3000
FF00
FF00
3000
3000
3000
3000
3000
3000
3000
3000
30C0
30C0
0F00
0F00
ENDCHAR
STARTCHAR u
ENCODING 117
SWIDTH 500 0
DWIDTH 16 0
BBX 12 14 2 0
BITMAP
0030
0030
3030
3030
F0F0
F0F0
3030
3030
3030
3030
3030
3030
0FF0
0FF0
ENDCHAR
STARTCHAR v
ENCODING 118
SWIDTH 500 0
DWIDTH 16 0
BBX 12 14 2 0
BITMAP
0030
0030
3030
3030
F0F0
F0F0
3030
3030
3030
3030
0CC0
0CC0
0300
0300
ENDCHAR
STARTCHAR w
ENCODING 119
SWIDTH 750 0
DWIDTH 24 0
BBX 20 14 2 0
BITMAP
000030
000030
303030
303030
F0F0F0
F0F0F0
303030
303030
303030
303030
0CCCC0
0CCCC0
030300
030300
ENDCHAR
STARTCHAR x
ENCODING 120
SWIDTH 500 0
DWIDTH 16 0
BBX 12 14 2 0
BITMAP
3030
3030
F030
F030
0CC0
0CC0
0300
0300
0CC0
0CC0
3030
3030
F030
F030
ENDCHAR
STARTCHAR y
ENCODING 121
SWIDTH 500 0
DWIDTH 16 0
BBX 12 22 2 -8
BITMAP
3030
3030
F0F0
F0F0
3030
3030
3030
3030
3030
3030
30F0
30F0
0F30
0F30
0030
0030
0030
0030
3030
3030
0FC0
0FC0
ENDCHAR
STARTCHAR z
ENCODING 122
SWIDTH 500 0
DWIDTH 16 0
BBX 10 14 4 0
BITMAP
3FC0
3FC0
C0C0
C0C0
0300
0300
0C00
0C00
0C00
0C00
3000
3000
FFC0
FFC0
ENDCHAR
STARTCHAR braceleft
ENCODING 123
SWIDTH 375 0
DWIDTH 12 0
BBX 10 28 0 -4
BITMAP
03C0
03C0
3C00
3C00
0C00
0C00
0C00
0C00
0C00
0C00
3000
3000
C000
C000
C000
C000
3000
3000
0C00
0C00
0C00
0C00
0C00
0C00
0C00
0C00
03C0
03C0
ENDCHAR
STARTCHAR bar
ENCODING 124
SWIDTH 250 0
DWIDTH 8 0
BBX 4 32 2 -8
BITMAP
30
30
F0
F0
30
30
30
30
30
30
30
30
30
30
30
30
30
30
30
30
30
30
30
30
30
30
30
30
30
30
30
30
ENDCHAR
STARTCHAR braceright
ENCODING 125
SWIDTH 437 0
DWIDTH 14 0
BBX 10 28 2 -4
BITMAP
F000
F000
0C00
0C00
0C00
0C00
0C00
0C00
0C00
0C00
0300
0300
00C0
00C0
00C0
00C0
0300
0300
0C00
0C00
0C00
0C00
0C00
0C00
0C00
0C00
F000
F000
ENDCHAR
STARTCHAR asciitilde
ENCODING 126
SWIDTH 562 0
DWIDTH 18 0
BBX 14 6 2 8
BITMAP
3C00
3C00
C30C
C30C
00F0
00F0
ENDCHAR
STARTCHAR uni00A0
ENCODING 160
SWIDTH 312 0
DWIDTH 10 0
BBX 1 1 0 0
BITMAP
00
ENDCHAR
STARTCHAR exclamdown
ENCODING 161
SWIDTH 312 0
DWIDTH 10 0
BBX 4 24 4 -6
BITMAP
30
30
30
30
00
00
30
30
F0
F0
30
30
30
30
30
30
30
30
30
30
30
30
30
30
ENDCHAR
STARTCHAR cent
ENCODING 162
SWIDTH 500 0
DWIDTH 16 0
BBX 12 18 2 0
BITMAP
0300
0300
0FC0
0FC0
3330
3330
F300
F300
3300
3300
3300
3300
3330
3330
0FC0
0FC0
0300
0300
ENDCHAR
STARTCHAR sterling
ENCODING 163
SWIDTH 500 0
DWIDTH 16 0
BBX 10 20 4 0
BITMAP
0F00
0F00
30C0
30C0
F000
F000
3000
3000
0C00
0C00
3F00
3F00
0C00
0C00
3000
3000
3000
3000
FFC0
FFC0
ENDCHAR
STARTCHAR currency
ENCODING 164
SWIDTH 500 0
DWIDTH 16 0
BBX 10 10 4 6
BITMAP
C0C0
C0C0
3F00
3F00
3300
3300
3F00
3F00
C0C0
C0C0
ENDCHAR
STARTCHAR yen
ENCODING 165
SWIDTH 500 0
DWIDTH 16 0
BBX 12 24 2 0
BITMAP
3030
3030
F0F0
F0F0
3030
3030
3030
3030
0CC0
0CC0
0300
0300
0300
0300
0FC0
0FC0
0300
0300
0FC0
0FC0
0300
0300
0300
0300
ENDCHAR
STARTCHAR dieresis
ENCODING 168
SWIDTH 875 0
DWIDTH 28 0
BBX 28 24 -2 -4
BITMAP
03CFFC00
03CFFC00
0C300300
0C300300
0C000300
0C000300
0C000300
0C000300
FFFFFFF0
FFFFFFF0
0FC00300
0FC00300
0F0C3300
0F0C3300
0F0C3300
0F0C3300
0C000300
0C000300
0C03C300
0C03C300
03000C00
03000C00
00FFF000
00FFF000
ENDCHAR
STARTCHAR copyright
ENCODING 169
SWIDTH 812 0
DWIDTH 26 0
BBX 22 20 2 0
BITMAP
03FF00
03FF00
0C00C0
0C00C0
300030
300030
C0FC0C
C0FC0C
C3000C
C3000C
C3000C
C3000C
C0FC0C
C0FC0C
300030
300030
0C00C0
0C00C0
03FF00
03FF00
ENDCHAR
STARTCHAR afii10023
ENCODING 1025
SWIDTH 437 0
DWIDTH 14 0
BBX 10 28 2 0
BITMAP
3300
3300
0000
0000
3FC0
3FC0
F000
F000
3000
3000
3000
3000
3000
3000
3F00
3F00
3000
3000
3000
3000
3000
3000
3000
3000
3000
3000
FFC0
FFC0
ENDCHAR
STARTCHAR afii10017
ENCODING 1040
SWIDTH 500 0
DWIDTH 16 0
BBX 12 24 2 0
BITMAP
3FF0
3FF0
3030
3030
F030
F030
3030
3030
3030
3030
3FF0
3FF0
3030
3030
3030
3030
3030
3030
3030
3030
3030
3030
F0F0
F0F0
ENDCHAR
STARTCHAR afii10018
ENCODING 1041
SWIDTH 500 0
DWIDTH 16 0
BBX 12 24 2 0
BITMAP
3FF0
3FF0
F000
F000
3000
3000
3000
3000
3000
3000
3FC0
3FC0
3030
3030
3030
3030
3030
3030
3030
3030
3030
3030
FFC0
FFC0
ENDCHAR
STARTCHAR afii10019
ENCODING 1042
SWIDTH 500 0
DWIDTH 16 0
BBX 12 24 2 0
BITMAP
3FC0
3FC0
F030
F030
3030
3030
3030
3030
3030
3030
3FC0
3FC0
3030
3030
3030
3030
3030
3030
3030
3030
3030
3030
FFC0
FFC0
ENDCHAR
STARTCHAR afii10020
ENCODING 1043
SWIDTH 500 0
DWIDTH 16 0
BBX 12 24 2 0
BITMAP
3FF0
3FF0
F0C0
F0C0
3000
3000
3000
3000
3000
3000
3000
3000
3000
3000
3000
3000
3000
3000
3000
3000
3000
3000
3000
3000
ENDCHAR
STARTCHAR afii10021
ENCODING 1044
SWIDTH 562 0
DWIDTH 18 0
BBX 14 24 2 0
BITMAP
0FF0
0FF0
3030
3030
F030
F030
3030
3030
3030
3030
3030
3030
3030
3030
3030
3030
3030
3030
3030
3030
FFFC
FFFC
C00C
C00C
ENDCHAR
STARTCHAR afii10022
ENCODING 1045
SWIDTH 437 0
DWIDTH 14 0
BBX 10 24 2 0
BITMAP
3FC0
3FC0
F000
F000
3000
3000
3000
3000
3000
3000
3F00
3F00
3000
3000
3000
3000
3000
3000
3000
3000
3000
3000
FFC0
FFC0
ENDCHAR
STARTCHAR afii10024
ENCODING 1046
SWIDTH 623 0
DWIDTH 20 0
BBX 16 24 2 0
BITMAP
30C3
30C3
F3CF
F3CF
30C3
30C3
30C3
30C3
0CCC
0CCC
03F0
03F0
0CCC
0CCC
0CCC
0CCC
30C3
30C3
30C3
30C3
30C3
30C3
F3CF
F3CF
ENDCHAR
STARTCHAR afii10025
ENCODING 1047
SWIDTH 500 0
DWIDTH 16 0
BBX 10 24 4 0
BITMAP
3F00
3F00
C0C0
C0C0
03C0
03C0
00C0
00C0
00C0
00C0
0F00
0F00
00C0
00C0
00C0
00C0
00C0
00C0
30C0
30C0
C0C0
C0C0
3F00
3F00
ENDCHAR
STARTCHAR afii10026
ENCODING 1048
SWIDTH 560 0
DWIDTH 18 0
BBX 14 24 2 0
BITMAP
300C
300C
F03C
F03C
303C
303C
30CC
30CC
30CC
30CC
30CC
30CC
330C
330C
330C
330C
330C
330C
3C0C
3C0C
3C0C
3C0C
F03C
F03C
ENDCHAR
STARTCHAR afii10027
ENCODING 1049
SWIDTH 562 0
DWIDTH 18 0
BBX 14 30 2 0
BITMAP
0C30
0C30
03C0
03C0
0000
0000
300C
300C
F03C
F03C
303C
303C
30CC
30CC
30CC
30CC
30CC
30CC
330C
330C
330C
330C
330C
330C
3C0C
3C0C
3C0C
3C0C
F03C
F03C
ENDCHAR
STARTCHAR afii10028
ENCODING 1050
SWIDTH 500 0
DWIDTH 16 0
BBX 12 24 2 0
BITMAP
3030
3030
F0C0
F0C0
30C0
30C0
3300
3300
3300
3300
3C00
3C00
3300
3300
3300
3300
30C0
30C0
30C0
30C0
30C0
30C0
F030
F030
ENDCHAR
STARTCHAR afii10029
ENCODING 1051
SWIDTH 500 0
DWIDTH 16 0
BBX 12 24 2 0
BITMAP
03F0
03F0
0C30
0C30
3CF0
3CF0
0C30
0C30
0C30
0C30
3030
3030
3030
3030
3030
3030
3030
3030
3030
3030
3030
3030
F0F0
F0F0
ENDCHAR
STARTCHAR afii10030
ENCODING 1052
SWIDTH 625 0
DWIDTH 20 0
BBX 16 24 2 0
BITMAP
3C0F
3C0F
F333
F333
3333
3333
30C3
30C3
30C3
30C3
30C3
30C3
3003
3003
3003
3003
3003
3003
3003
3003
3003
3003
F00F
F00F
ENDCHAR
STARTCHAR afii10031
ENCODING 1053
SWIDTH 500 0
DWIDTH 16 0
BBX 12 24 2 0
BITMAP
3030
3030
F0F0
F0F0
3030
3030
3030
3030
3030
3030
3FF0
3FF0
3030
3030
3030
3030
3030
3030
3030
3030
3030
3030
F0F0
F0F0
ENDCHAR
STARTCHAR afii10032
ENCODING 1054
SWIDTH 500 0
DWIDTH 16 0
BBX 12 24 2 0
BITMAP
0FC0
0FC0
3030
3030
F030
F030
3030
3030
3030
3030
3030
3030
3030
3030
3030
3030
3030
3030
3030
3030
3030
3030
0FC0
0FC0
ENDCHAR
STARTCHAR afii10033
ENCODING 1055
SWIDTH 500 0
DWIDTH 16 0
BBX 12 24 2 0
BITMAP
3FF0
3FF0
F030
F030
3030
3030
3030
3030
3030
3030
3030
3030
3030
3030
3030
3030
3030
3030
3030
3030
3030
3030
F0F0
F0F0
ENDCHAR
STARTCHAR afii10034
ENCODING 1056
SWIDTH 500 0
DWIDTH 16 0
BBX 12 24 2 0
BITMAP
3FC0
3FC0
F030
F030
3030
3030
3030
3030
3030
3030
3FC0
3FC0
3000
3000
3000
3000
3000
3000
3000
3000
3000
3000
F000
F000
ENDCHAR
STARTCHAR afii10035
ENCODING 1057
SWIDTH 500 0
DWIDTH 16 0
BBX 12 24 2 0
BITMAP
0FC0
0FC0
F030
F030
3000
3000
3000
3000
3000
3000
3000
3000
3000
3000
3000
3000
3000
3000
3000
3000
3030
3030
0FC0
0FC0
ENDCHAR
STARTCHAR afii10036
ENCODING 1058
SWIDTH 687 0
DWIDTH 22 0
BBX 18 24 2 0
BITMAP
3FFFC0
3FFFC0
F0C300
F0C300
00C000
00C000
00C000
00C000
00C000
00C000
00C000
00C000
00C000
00C000
00C000
00C000
00C000
00C000
00C000
00C000
00C000
00C000
03C000
03C000
ENDCHAR
STARTCHAR afii10037
ENCODING 1059
SWIDTH 500 0
DWIDTH 16 0
BBX 12 24 2 0
BITMAP
3030
3030
F0F0
F0F0
3030
3030
3030
3030
3030
3030
0FF0
0FF0
0030
0030
0030
0030
0030
0030
0030
0030
3030
3030
0FC0
0FC0
ENDCHAR
STARTCHAR afii10038
ENCODING 1060
SWIDTH 687 0
DWIDTH 22 0
BBX 18 24 2 0
BITMAP
00C000
00C000
0FFC00
0FFC00
30C300
30C300
C3C0C0
C3C0C0
C0C0C0
C0C0C0
C0C0C0
C0C0C0
C0C0C0
C0C0C0
C0C0C0
C0C0C0
30C300
30C300
0FFC00
0FFC00
00C000
00C000
03C000
03C000
ENDCHAR
STARTCHAR afii10039
ENCODING 1061
SWIDTH 500 0
DWIDTH 16 0
BBX 12 24 2 0
BITMAP
3030
3030
F0F0
F0F0
3030
3030
0CC0
0CC0
0CC0
0CC0
0300
0300
0300
0300
0CC0
0CC0
0CC0
0CC0
3030
3030
3030
3030
F0F0
F0F0
ENDCHAR
STARTCHAR afii10040
ENCODING 1062
SWIDTH 562 0
DWIDTH 18 0
BBX 14 24 2 0
BITMAP
3030
3030
F0F0
F0F0
3030
3030
3030
3030
3030
3030
3030
3030
3030
3030
3030
3030
3030
3030
3030
3030
0FFC
0FFC
000C
000C
ENDCHAR
STARTCHAR afii10041
ENCODING 1063
SWIDTH 500 0
DWIDTH 16 0
BBX 12 24 2 0
BITMAP
3030
3030
F0F0
F0F0
3030
3030
3030
3030
3030
3030
0FF0
0FF0
0030
0030
0030
0030
0030
0030
0030
0030
0030
0030
00F0
00F0
ENDCHAR
STARTCHAR afii10042
ENCODING 1064
SWIDTH 750 0
DWIDTH 24 0
BBX 20 24 2 0
BITMAP
300030
300030
F030F0
F030F0
30F030
30F030
303030
303030
303030
303030
303030
303030
303030
303030
303030
303030
303030
303030
303030
303030
303030
303030
FFCFC0
FFCFC0
ENDCHAR
STARTCHAR afii10043
ENCODING 1065
SWIDTH 812 0
DWIDTH 26 0
BBX 22 24 2 0
BITMAP
300030
300030
F030F0
F030F0
30F030
30F030
303030
303030
303030
303030
303030
303030
303030
303030
303030
303030
303030
303030
303030
303030
FFCFFC
FFCFFC
00000C
00000C
ENDCHAR
STARTCHAR afii10044
ENCODING 1066
SWIDTH 560 0
DWIDTH 18 0
BBX 14 24 2 0
BITMAP
FC00
FC00
0C00
0C00
0C00
0C00
0C00
0C00
0C00
0C00
0FF0
0FF0
0C0C
0C0C
0C0C
0C0C
0C0C
0C0C
0C0C
0C0C
0C0C
0C0C
3FF0
3FF0
ENDCHAR
STARTCHAR afii10045
ENCODING 1067
SWIDTH 625 0
DWIDTH 20 0
BBX 16 24 2 0
BITMAP
3003
3003
F00F
F00F
3003
3003
3003
3003
3003
3003
3FC3
3FC3
3033
3033
3033
3033
3033
3033
3033
3033
3033
3033
FFC3
FFC3
ENDCHAR
STARTCHAR afii10046
ENCODING 1068
SWIDTH 500 0
DWIDTH 16 0
BBX 12 24 2 0
BITMAP
3000
3000
F000
F000
3000
3000
3000
3000
3000
3000
3FC0
3FC0
3030
3030
3030
3030
3030
3030
3030
3030
3030
3030
FFC0
FFC0
ENDCHAR
STARTCHAR afii10047
ENCODING 1069
SWIDTH 500 0
DWIDTH 16 0
BBX 12 24 2 0
BITMAP
3F00
3F00
F0C0
F0C0
0030
0030
0030
0030
0030
0030
3FF0
3FF0
0030
0030
0030
0030
0030
0030
0030
0030
C0C0
C0C0
3F00
3F00
ENDCHAR
STARTCHAR afii10048
ENCODING 1070
SWIDTH 687 0
DWIDTH 22 0
BBX 18 24 2 0
BITMAP
303F00
303F00
F3C0C0
F3C0C0
30C0C0
30C0C0
30C0C0
30C0C0
30C0C0
30C0C0
3FC0C0
3FC0C0
30C0C0
30C0C0
30C0C0
30C0C0
30C0C0
30C0C0
30C0C0
30C0C0
30C0C0
30C0C0
F03F00
F03F00
ENDCHAR
STARTCHAR afii10049
ENCODING 1071
SWIDTH 625 0
DWIDTH 20 0
BBX 12 24 4 0
BITMAP
0FF0
0FF0
3030
3030
F0F0
F0F0
3030
3030
3030
3030
0FF0
0FF0
0C30
0C30
3030
3030
3030
3030
3030
3030
3030
3030
F0F0
F0F0
ENDCHAR
STARTCHAR afii10065
ENCODING 1072
SWIDTH 500 0
DWIDTH 16 0
BBX 10 14 4 0
BITMAP
3F00
3F00
C0C0
C0C0
00C0
00C0
3FC0
3FC0
C0C0
C0C0
C3C0
C3C0
3CC0
3CC0
ENDCHAR
STARTCHAR afii10066
ENCODING 1073
SWIDTH 500 0
DWIDTH 16 0
BBX 12 24 2 0
BITMAP
0030
0030
0FC0
0FC0
3000
3000
F000
F000
3000
3000
3FC0
3FC0
3030
3030
3030
3030
3030
3030
3030
3030
3030
3030
FFC0
FFC0
ENDCHAR
STARTCHAR afii10067
ENCODING 1074
SWIDTH 500 0
DWIDTH 16 0
BBX 12 14 2 0
BITMAP
3F00
3F00
F0C0
F0C0
30C0
30C0
3FC0
3FC0
3030
3030
3030
3030
3FC0
3FC0
ENDCHAR
STARTCHAR afii10068
ENCODING 1075
SWIDTH 437 0
DWIDTH 14 0
BBX 10 14 2 0
BITMAP
3FC0
3FC0
F000
F000
3000
3000
3000
3000
3000
3000
3000
3000
3000
3000
ENDCHAR
STARTCHAR afii10069
ENCODING 1076
SWIDTH 500 0
DWIDTH 16 0
BBX 12 14 2 0
BITMAP
0FC0
0FC0
30C0
30C0
F0C0
F0C0
30C0
30C0
30C0
30C0
FFF0
FFF0
C030
C030
ENDCHAR
STARTCHAR afii10070
ENCODING 1077
SWIDTH 500 0
DWIDTH 16 0
BBX 12 14 2 0
BITMAP
0FC0
0FC0
3030
3030
F0C0
F0C0
3300
3300
3C00
3C00
3030
3030
0FC0
0FC0
ENDCHAR
STARTCHAR afii10072
ENCODING 1078
SWIDTH 625 0
DWIDTH 20 0
BBX 16 14 2 0
BITMAP
30C3
30C3
F3CF
F3CF
30C3
30C3
0CCC
0CCC
03F0
03F0
0CCC
0CCC
30C3
30C3
ENDCHAR
STARTCHAR afii10073
ENCODING 1079
SWIDTH 500 0
DWIDTH 16 0
BBX 12 14 2 0
BITMAP
0FC0
0FC0
F030
F030
0030
0030
03C0
03C0
0030
0030
3030
3030
0FC0
0FC0
ENDCHAR
STARTCHAR afii10074
ENCODING 1080
SWIDTH 500 0
DWIDTH 16 0
BBX 12 14 2 0
BITMAP
3030
3030
F0F0
F0F0
30F0
30F0
3330
3330
3330
3330
3C30
3C30
3030
3030
ENDCHAR
STARTCHAR afii10075
ENCODING 1081
SWIDTH 500 0
DWIDTH 16 0
BBX 12 20 2 0
BITMAP
0CC0
0CC0
0300
0300
0000
0000
3030
3030
F0F0
F0F0
30F0
30F0
3330
3330
3330
3330
3C30
3C30
3030
3030
ENDCHAR
STARTCHAR afii10076
ENCODING 1082
SWIDTH 437 0
DWIDTH 14 0
BBX 10 14 2 0
BITMAP
30C0
30C0
F300
F300
3C00
3C00
3300
3300
3300
3300
30C0
30C0
F0C0
F0C0
ENDCHAR
STARTCHAR afii10077
ENCODING 1083
SWIDTH 437 0
DWIDTH 14 0
BBX 10 14 2 0
BITMAP
0FC0
0FC0
30C0
30C0
F0C0
F0C0
30C0
30C0
30C0
30C0
C0C0
C0C0
C0C0
C0C0
ENDCHAR
STARTCHAR afii10078
ENCODING 1084
SWIDTH 625 0
DWIDTH 20 0
BBX 16 14 2 0
BITMAP
3003
3003
FC0F
FC0F
3C0F
3C0F
3333
3333
30C3
30C3
30C3
30C3
F003
F003
ENDCHAR
STARTCHAR afii10079
ENCODING 1085
SWIDTH 500 0
DWIDTH 16 0
BBX 12 14 2 0
BITMAP
3030
3030
F0F0
F0F0
3030
3030
3FF0
3FF0
3030
3030
3030
3030
F030
F030
ENDCHAR
STARTCHAR afii10080
ENCODING 1086
SWIDTH 500 0
DWIDTH 16 0
BBX 12 14 2 0
BITMAP
0FC0
0FC0
3030
3030
F030
F030
3030
3030
3030
3030
3030
3030
0FC0
0FC0
ENDCHAR
STARTCHAR afii10081
ENCODING 1087
SWIDTH 500 0
DWIDTH 16 0
BBX 12 14 2 0
BITMAP
3FC0
3FC0
F030
F030
3030
3030
3030
3030
3030
3030
3030
3030
F0F0
F0F0
ENDCHAR
STARTCHAR afii10082
ENCODING 1088
SWIDTH 500 0
DWIDTH 16 0
BBX 12 22 2 -8
BITMAP
0FC0
0FC0
3030
3030
3030
3030
3030
3030
3030
3030
3030
3030
3FC0
3FC0
3000
3000
3000
3000
3000
3000
F000
F000
ENDCHAR
STARTCHAR afii10083
ENCODING 1089
SWIDTH 500 0
DWIDTH 16 0
BBX 12 14 2 0
BITMAP
0FC0
0FC0
3030
3030
F000
F000
3000
3000
3000
3000
3030
3030
0FC0
0FC0
ENDCHAR
STARTCHAR afii10084
ENCODING 1090
SWIDTH 500 0
DWIDTH 16 0
BBX 12 14 2 0
BITMAP
3FF0
3FF0
F300
F300
0300
0300
0300
0300
0300
0300
0300
0300
0F00
0F00
ENDCHAR
STARTCHAR afii10085
ENCODING 1091
SWIDTH 560 0
DWIDTH 18 0
BBX 12 22 2 -8
BITMAP
3030
3030
F0F0
F0F0
3030
3030
3030
3030
3030
3030
30F0
30F0
0F30
0F30
0030
0030
0030
0030
3030
3030
0FC0
0FC0
ENDCHAR
STARTCHAR afii10086
ENCODING 1092
SWIDTH 500 0
DWIDTH 16 0
BBX 12 22 2 -8
BITMAP
0300
0300
0FC0
0FC0
3330
3330
F330
F330
3330
3330
3330
3330
0FC0
0FC0
0300
0300
0300
0300
0300
0300
0F00
0F00
ENDCHAR
STARTCHAR afii10087
ENCODING 1093
SWIDTH 500 0
DWIDTH 16 0
BBX 12 14 2 0
BITMAP
3030
3030
F030
F030
0CC0
0CC0
0300
0300
0CC0
0CC0
3030
3030
F030
F030
ENDCHAR
STARTCHAR afii10088
ENCODING 1094
SWIDTH 560 0
DWIDTH 18 0
BBX 14 16 2 -2
BITMAP
3030
3030
F0F0
F0F0
3030
3030
3030
3030
3030
3030
3030
3030
0FFC
0FFC
000C
000C
ENDCHAR
STARTCHAR afii10089
ENCODING 1095
SWIDTH 560 0
DWIDTH 18 0
BBX 12 14 2 0
BITMAP
3030
3030
F0F0
F0F0
3030
3030
0FF0
0FF0
0030
0030
0030
0030
0030
0030
ENDCHAR
STARTCHAR afii10090
ENCODING 1096
SWIDTH 625 0
DWIDTH 20 0
BBX 16 14 2 0
BITMAP
30C3
30C3
F3CF
F3CF
30C3
30C3
30C3
30C3
30C3
30C3
30C3
30C3
0FFF
0FFF
ENDCHAR
STARTCHAR afii10091
ENCODING 1097
SWIDTH 687 0
DWIDTH 22 0
BBX 18 16 2 -2
BITMAP
30C300
30C300
F3CF00
F3CF00
30C300
30C300
30C300
30C300
30C300
30C300
30C300
30C300
0FFFC0
0FFFC0
0000C0
0000C0
ENDCHAR
STARTCHAR afii10092
ENCODING 1098
SWIDTH 562 0
DWIDTH 18 0
BBX 14 14 2 0
BITMAP
3C00
3C00
CC00
CC00
0C00
0C00
0FF0
0FF0
0C0C
0C0C
0C0C
0C0C
3FF0
3FF0
ENDCHAR
STARTCHAR afii10093
ENCODING 1099
SWIDTH 625 0
DWIDTH 20 0
BBX 16 14 2 0
BITMAP
3003
3003
300F
300F
3003
3003
3FC3
3FC3
3033
3033
3033
3033
FFC3
FFC3
ENDCHAR
STARTCHAR afii10094
ENCODING 1100
SWIDTH 562 0
DWIDTH 18 0
BBX 12 14 4 0
BITMAP
3000
3000
3000
3000
3000
3000
3FC0
3FC0
3030
3030
3030
3030
FFC0
FFC0
ENDCHAR
STARTCHAR afii10095
ENCODING 1101
SWIDTH 623 0
DWIDTH 20 0
BBX 10 14 4 0
BITMAP
0F00
0F00
F0C0
F0C0
00C0
00C0
3FC0
3FC0
00C0
00C0
C0C0
C0C0
3F00
3F00
ENDCHAR
STARTCHAR afii10096
ENCODING 1102
SWIDTH 560 0
DWIDTH 18 0
BBX 14 14 2 0
BITMAP
30F0
30F0
F30C
F30C
330C
330C
3F0C
3F0C
330C
330C
330C
330C
F0F0
F0F0
ENDCHAR
STARTCHAR afii10097
ENCODING 1103
SWIDTH 500 0
DWIDTH 16 0
BBX 12 14 2 0
BITMAP
0FF0
0FF0
3030
3030
F030
F030
3FF0
3FF0
0C30
0C30
3030
3030
30F0
30F0
ENDCHAR
STARTCHAR quoteright
ENCODING 8217
SWIDTH 312 0
DWIDTH 10 0
BBX 4 6 4 16
BITMAP
30
30
30
30
C0
C0
ENDCHAR
STARTCHAR Euro
ENCODING 8364
SWIDTH 562 0
DWIDTH 18 0
BBX 14 18 2 0
BITMAP
03F0
03F0
0C0C
0C0C
3000
3000
FFF0
FFF0
3000
3000
FFF0
FFF0
3000
3000
0C0C
0C0C
03F0
03F0
ENDCHAR
STARTCHAR uni3000
ENCODING 12288
SWIDTH 1000 0
DWIDTH 32 0
BBX 1 1 0 0
BITMAP
00
ENDCHAR
STARTCHAR .notdef
ENCODING -1
SWIDTH 530 0
DWIDTH 17 0
BBX 13 20 0 2
BITMAP
FFF8
C018
C018
C018
C018
C018
C018
C018
C018
C018
C018
C018
C018
C018
C018
C018
C018
C018
C018
FFF8
ENDCHAR
STARTCHAR .notdef_2
ENCODING -1
SWIDTH 530 0
DWIDTH 17 0
BBX 13 20 0 2
BITMAP
FFF8
C018
C018
C018
C018
C018
C018
C018
C018
C018
C018
C018
C018
C018
C018
C018
C018
C018
C018
FFF8
ENDCHAR
ENDFONT
